<?xml version="1.0" encoding="UTF-8" standalone="no"?>
<!DOCTYPE svg PUBLIC "-//W3C//DTD SVG 1.1//EN"
 "http://www.w3.org/Graphics/SVG/1.1/DTD/svg11.dtd">
<!-- Generated by graphviz version 2.40.1 (20161225.0304)
 -->
<!-- Title: G Pages: 1 -->
<svg width="1109pt" height="525pt"
 viewBox="0.00 0.00 1109.33 525.00" xmlns="http://www.w3.org/2000/svg" xmlns:xlink="http://www.w3.org/1999/xlink">
<g id="graph0" class="graph" transform="scale(1 1) rotate(0) translate(4 521)">
<title>G</title>
<polygon fill="#ffffff" stroke="transparent" points="-4,4 -4,-521 1105.335,-521 1105.335,4 -4,4"/>
<g id="clust1" class="cluster">
<title>cluster_Global</title>
<path fill="none" stroke="#c0c0c0" d="M156.834,-152C156.834,-152 1081.335,-152 1081.335,-152 1087.335,-152 1093.335,-158 1093.335,-164 1093.335,-164 1093.335,-497 1093.335,-497 1093.335,-503 1087.335,-509 1081.335,-509 1081.335,-509 156.834,-509 156.834,-509 150.834,-509 144.834,-503 144.834,-497 144.834,-497 144.834,-164 144.834,-164 144.834,-158 150.834,-152 156.834,-152"/>
<text text-anchor="middle" x="619.0845" y="-496.2" font-family="Times,serif" font-size="11.00" fill="#c0c0c0">Global</text>
</g>
<g id="clust2" class="cluster">
<title>cluster_\smtech</title>
<path fill="none" stroke="#c0c0c0" d="M164.834,-160C164.834,-160 1073.335,-160 1073.335,-160 1079.335,-160 1085.335,-166 1085.335,-172 1085.335,-172 1085.335,-470 1085.335,-470 1085.335,-476 1079.335,-482 1073.335,-482 1073.335,-482 164.834,-482 164.834,-482 158.834,-482 152.834,-476 152.834,-470 152.834,-470 152.834,-172 152.834,-172 152.834,-166 158.834,-160 164.834,-160"/>
<text text-anchor="middle" x="619.0845" y="-469.2" font-family="Times,serif" font-size="11.00" fill="#c0c0c0">smtech</text>
</g>
<g id="clust3" class="cluster">
<title>cluster_\smtech\CanvasPest</title>
<path fill="none" stroke="#c0c0c0" d="M172.834,-168C172.834,-168 1065.335,-168 1065.335,-168 1071.335,-168 1077.335,-174 1077.335,-180 1077.335,-180 1077.335,-443 1077.335,-443 1077.335,-449 1071.335,-455 1065.335,-455 1065.335,-455 172.834,-455 172.834,-455 166.834,-455 160.834,-449 160.834,-443 160.834,-443 160.834,-180 160.834,-180 160.834,-174 166.834,-168 172.834,-168"/>
<text text-anchor="middle" x="619.0845" y="-442.2" font-family="Times,serif" font-size="11.00" fill="#c0c0c0">CanvasPest</text>
</g>
<!-- \\smtech\\CanvasPest\\CanvasPageLink_Exception -->
<g id="node1" class="node">
<title>\\smtech\\CanvasPest\\CanvasPageLink_Exception</title>
<polygon fill="none" stroke="#000000" points="1069.5484,-428 894.6958,-428 894.6958,-392 1069.5484,-392 1069.5484,-428"/>
<text text-anchor="middle" x="982.1221" y="-406.7" font-family="Courier,monospace" font-size="11.00" fill="#000000">CanvasPageLink_Exception</text>
</g>
<!-- \\smtech\\CanvasPest\\CanvasArray_Exception -->
<g id="node9" class="node">
<title>\\smtech\\CanvasPest\\CanvasArray_Exception</title>
<polygon fill="none" stroke="#000000" points="822.7209,-428 668.4749,-428 668.4749,-392 822.7209,-392 822.7209,-428"/>
<text text-anchor="middle" x="745.5979" y="-406.7" font-family="Courier,monospace" font-size="11.00" fill="#000000">CanvasArray_Exception</text>
</g>
<!-- \\smtech\\CanvasPest\\CanvasPageLink_Exception&#45;&gt;\\smtech\\CanvasPest\\CanvasArray_Exception -->
<g id="edge1" class="edge">
<title>\\smtech\\CanvasPest\\CanvasPageLink_Exception&#45;&gt;\\smtech\\CanvasPest\\CanvasArray_Exception</title>
<path fill="none" stroke="#000000" d="M894.7212,-410C874.5701,-410 853.1337,-410 832.9833,-410"/>
<polygon fill="none" stroke="#000000" points="832.8926,-406.5001 822.8926,-410 832.8925,-413.5001 832.8926,-406.5001"/>
</g>
<!-- \\smtech\\CanvasPest\\CanvasPageLink -->
<g id="node2" class="node">
<title>\\smtech\\CanvasPest\\CanvasPageLink</title>
<polygon fill="none" stroke="#000000" points="1036.5379,-374 927.7062,-374 927.7062,-338 1036.5379,-338 1036.5379,-374"/>
<text text-anchor="middle" x="982.1221" y="-352.7" font-family="Courier,monospace" font-size="11.00" fill="#000000">CanvasPageLink</text>
</g>
<!-- \\smtech\\CanvasPest\\CanvasObject_Exception -->
<g id="node3" class="node">
<title>\\smtech\\CanvasPest\\CanvasObject_Exception</title>
<polygon fill="none" stroke="#000000" points="573.2948,-428 411.8473,-428 411.8473,-392 573.2948,-392 573.2948,-428"/>
<text text-anchor="middle" x="492.571" y="-406.7" font-family="Courier,monospace" font-size="11.00" fill="#000000">CanvasObject_Exception</text>
</g>
<!-- \\smtech\\CanvasPest\\CanvasPest_Exception -->
<g id="node7" class="node">
<title>\\smtech\\CanvasPest\\CanvasPest_Exception</title>
<polygon fill="none" stroke="#000000" points="316.8662,-401 168.8232,-401 168.8232,-365 316.8662,-365 316.8662,-401"/>
<text text-anchor="middle" x="242.8447" y="-379.7" font-family="Courier,monospace" font-size="11.00" fill="#000000">CanvasPest_Exception</text>
</g>
<!-- \\smtech\\CanvasPest\\CanvasObject_Exception&#45;&gt;\\smtech\\CanvasPest\\CanvasPest_Exception -->
<g id="edge2" class="edge">
<title>\\smtech\\CanvasPest\\CanvasObject_Exception&#45;&gt;\\smtech\\CanvasPest\\CanvasPest_Exception</title>
<path fill="none" stroke="#000000" d="M411.8369,-401.2712C384.6769,-398.3347 354.32,-395.0525 326.91,-392.089"/>
<polygon fill="none" stroke="#000000" points="327.2746,-388.6081 316.9563,-391.0128 326.5221,-395.5675 327.2746,-388.6081"/>
</g>
<!-- \\smtech\\CanvasPest\\CanvasPestImmutable -->
<g id="node4" class="node">
<title>\\smtech\\CanvasPest\\CanvasPestImmutable</title>
<polygon fill="none" stroke="#000000" points="1053.0431,-320 911.201,-320 911.201,-284 1053.0431,-284 1053.0431,-320"/>
<text text-anchor="middle" x="982.1221" y="-298.7" font-family="Courier,monospace" font-size="11.00" fill="#000000">CanvasPestImmutable</text>
</g>
<!-- \\smtech\\CanvasPest\\CanvasPest -->
<g id="node5" class="node">
<title>\\smtech\\CanvasPest\\CanvasPest</title>
<polygon fill="none" stroke="#000000" points="786.6086,-266 704.5872,-266 704.5872,-230 786.6086,-230 786.6086,-266"/>
<text text-anchor="middle" x="745.5979" y="-244.7" font-family="Courier,monospace" font-size="11.00" fill="#000000">CanvasPest</text>
</g>
<!-- \\smtech\\CanvasPest\\CanvasPestImmutable&#45;&gt;\\smtech\\CanvasPest\\CanvasPest -->
<g id="edge3" class="edge">
<title>\\smtech\\CanvasPest\\CanvasPestImmutable&#45;&gt;\\smtech\\CanvasPest\\CanvasPest</title>
<path fill="none" stroke="#000000" d="M911.157,-285.7982C874.4086,-277.4083 830.3654,-267.353 796.947,-259.7233"/>
<polygon fill="none" stroke="#000000" points="797.4649,-256.2516 786.9367,-257.4379 795.9068,-263.076 797.4649,-256.2516"/>
</g>
<!-- \\Battis\\Educoder\\Pest -->
<g id="node11" class="node">
<title>\\Battis\\Educoder\\Pest</title>
<ellipse fill="none" stroke="#000000" cx="492.571" cy="-126" rx="86.9809" ry="18"/>
<text text-anchor="middle" x="492.571" y="-121.8" font-family="Times,serif" font-size="14.00" fill="#c0c0c0">\Battis\Educoder\Pest</text>
</g>
<!-- \\smtech\\CanvasPest\\CanvasPest&#45;&gt;\\Battis\\Educoder\\Pest -->
<g id="edge4" class="edge">
<title>\\smtech\\CanvasPest\\CanvasPest&#45;&gt;\\Battis\\Educoder\\Pest</title>
<path fill="none" stroke="#000000" d="M716.8649,-229.9936C687.3233,-211.9244 639.6416,-183.9793 596.2866,-164 581.1426,-157.0211 564.3206,-150.3991 548.7077,-144.6967"/>
<polygon fill="none" stroke="#000000" points="549.763,-141.3569 539.1685,-141.27 547.3965,-147.9447 549.763,-141.3569"/>
</g>
<!-- \\smtech\\CanvasPest\\CanvasArray -->
<g id="node6" class="node">
<title>\\smtech\\CanvasPest\\CanvasArray</title>
<polygon fill="none" stroke="#000000" points="1026.2347,-266 938.0094,-266 938.0094,-230 1026.2347,-230 1026.2347,-266"/>
<text text-anchor="middle" x="982.1221" y="-244.7" font-family="Courier,monospace" font-size="11.00" fill="#000000">CanvasArray</text>
</g>
<!-- \\Iterator -->
<g id="node12" class="node">
<title>\\Iterator</title>
<ellipse fill="none" stroke="#000000" cx="745.5979" cy="-126" rx="38.6695" ry="18"/>
<text text-anchor="middle" x="745.5979" y="-121.8" font-family="Times,serif" font-size="14.00" fill="#c0c0c0">\Iterator</text>
</g>
<!-- \\smtech\\CanvasPest\\CanvasArray&#45;&gt;\\Iterator -->
<g id="edge5" class="edge">
<title>\\smtech\\CanvasPest\\CanvasArray&#45;&gt;\\Iterator</title>
<path fill="none" stroke="#000000" stroke-dasharray="1,5" d="M937.8328,-237.7236C923.6753,-233.5469 908.2307,-228.0191 894.9092,-221 858.8009,-201.9746 857.4186,-185.7917 822.9092,-164 810.4948,-156.1607 796.2324,-148.7456 783.3651,-142.5822"/>
<polygon fill="none" stroke="#000000" points="784.8288,-139.4029 774.2886,-138.3273 781.8575,-145.741 784.8288,-139.4029"/>
</g>
<!-- \\ArrayAccess -->
<g id="node13" class="node">
<title>\\ArrayAccess</title>
<ellipse fill="none" stroke="#000000" cx="745.5979" cy="-72" rx="58.465" ry="18"/>
<text text-anchor="middle" x="745.5979" y="-67.8" font-family="Times,serif" font-size="14.00" fill="#c0c0c0">\ArrayAccess</text>
</g>
<!-- \\smtech\\CanvasPest\\CanvasArray&#45;&gt;\\ArrayAccess -->
<g id="edge6" class="edge">
<title>\\smtech\\CanvasPest\\CanvasArray&#45;&gt;\\ArrayAccess</title>
<path fill="none" stroke="#000000" stroke-dasharray="1,5" d="M937.8395,-240.9707C923.0507,-236.9738 907.219,-230.7312 894.9092,-221 845.5176,-181.9549 871.5946,-138.9221 822.9092,-99 816.8026,-93.9926 809.7062,-89.887 802.337,-86.5277"/>
<polygon fill="none" stroke="#000000" points="803.4909,-83.218 792.9107,-82.6599 800.8336,-89.6941 803.4909,-83.218"/>
</g>
<!-- \\Serializable -->
<g id="node14" class="node">
<title>\\Serializable</title>
<ellipse fill="none" stroke="#000000" cx="745.5979" cy="-18" rx="54.1058" ry="18"/>
<text text-anchor="middle" x="745.5979" y="-13.8" font-family="Times,serif" font-size="14.00" fill="#c0c0c0">\Serializable</text>
</g>
<!-- \\smtech\\CanvasPest\\CanvasArray&#45;&gt;\\Serializable -->
<g id="edge7" class="edge">
<title>\\smtech\\CanvasPest\\CanvasArray&#45;&gt;\\Serializable</title>
<path fill="none" stroke="#000000" stroke-dasharray="1,5" d="M937.9082,-242.1809C922.7821,-238.2934 906.7164,-231.8104 894.9092,-221 832.575,-163.9284 884.2128,-103.1771 822.9092,-45 816.8973,-39.2947 809.6143,-34.7877 801.951,-31.2291"/>
<polygon fill="none" stroke="#000000" points="803.0547,-27.8989 792.4745,-27.342 800.3981,-34.3753 803.0547,-27.8989"/>
</g>
<!-- \\Exception -->
<g id="node15" class="node">
<title>\\Exception</title>
<ellipse fill="none" stroke="#000000" cx="48.417" cy="-383" rx="48.3341" ry="18"/>
<text text-anchor="middle" x="48.417" y="-378.8" font-family="Times,serif" font-size="14.00" fill="#c0c0c0">\Exception</text>
</g>
<!-- \\smtech\\CanvasPest\\CanvasPest_Exception&#45;&gt;\\Exception -->
<g id="edge8" class="edge">
<title>\\smtech\\CanvasPest\\CanvasPest_Exception&#45;&gt;\\Exception</title>
<path fill="none" stroke="#000000" d="M168.7853,-383C148.4089,-383 126.5915,-383 107.2042,-383"/>
<polygon fill="none" stroke="#000000" points="107.0091,-379.5001 97.0091,-383 107.009,-386.5001 107.0091,-379.5001"/>
</g>
<!-- \\smtech\\CanvasPest\\CanvasPestImmutable_Exception -->
<g id="node8" class="node">
<title>\\smtech\\CanvasPest\\CanvasPestImmutable_Exception</title>
<polygon fill="none" stroke="#000000" points="596.5026,-374 388.6394,-374 388.6394,-338 596.5026,-338 596.5026,-374"/>
<text text-anchor="middle" x="492.571" y="-352.7" font-family="Courier,monospace" font-size="11.00" fill="#000000">CanvasPestImmutable_Exception</text>
</g>
<!-- \\smtech\\CanvasPest\\CanvasPestImmutable_Exception&#45;&gt;\\smtech\\CanvasPest\\CanvasPest_Exception -->
<g id="edge9" class="edge">
<title>\\smtech\\CanvasPest\\CanvasPestImmutable_Exception&#45;&gt;\\smtech\\CanvasPest\\CanvasPest_Exception</title>
<path fill="none" stroke="#000000" d="M388.8341,-367.2159C368.2932,-369.4367 346.9667,-371.7425 327.166,-373.8833"/>
<polygon fill="none" stroke="#000000" points="326.5287,-370.4317 316.9628,-374.9865 327.2812,-377.3912 326.5287,-370.4317"/>
</g>
<!-- \\smtech\\CanvasPest\\CanvasArray_Exception&#45;&gt;\\smtech\\CanvasPest\\CanvasObject_Exception -->
<g id="edge10" class="edge">
<title>\\smtech\\CanvasPest\\CanvasArray_Exception&#45;&gt;\\smtech\\CanvasPest\\CanvasObject_Exception</title>
<path fill="none" stroke="#000000" d="M668.3066,-410C641.5131,-410 611.23,-410 583.4442,-410"/>
<polygon fill="none" stroke="#000000" points="583.3315,-406.5001 573.3314,-410 583.3314,-413.5001 583.3315,-406.5001"/>
</g>
<!-- \\smtech\\CanvasPest\\CanvasObject -->
<g id="node10" class="node">
<title>\\smtech\\CanvasPest\\CanvasObject</title>
<polygon fill="none" stroke="#000000" points="1029.8352,-212 934.4089,-212 934.4089,-176 1029.8352,-176 1029.8352,-212"/>
<text text-anchor="middle" x="982.1221" y="-190.7" font-family="Courier,monospace" font-size="11.00" fill="#000000">CanvasObject</text>
</g>
<!-- \\smtech\\CanvasPest\\CanvasObject&#45;&gt;\\ArrayAccess -->
<g id="edge11" class="edge">
<title>\\smtech\\CanvasPest\\CanvasObject&#45;&gt;\\ArrayAccess</title>
<path fill="none" stroke="#000000" stroke-dasharray="1,5" d="M955.7086,-175.9701C924.8429,-155.4459 871.7574,-121.8172 822.9092,-99 814.5848,-95.1116 805.5364,-91.4658 796.6601,-88.1879"/>
<polygon fill="none" stroke="#000000" points="797.7329,-84.8545 787.1383,-84.7813 795.3748,-91.4454 797.7329,-84.8545"/>
</g>
<!-- \\smtech\\CanvasPest\\CanvasObject&#45;&gt;\\Serializable -->
<g id="edge12" class="edge">
<title>\\smtech\\CanvasPest\\CanvasObject&#45;&gt;\\Serializable</title>
<path fill="none" stroke="#000000" stroke-dasharray="1,5" d="M967.2785,-175.845C941.1232,-144.9302 883.8022,-81.8442 822.9092,-45 815.2203,-40.3478 806.615,-36.3468 798.0145,-32.9592"/>
<polygon fill="none" stroke="#000000" points="798.9487,-29.5732 788.3554,-29.393 796.5242,-36.1399 798.9487,-29.5732"/>
</g>
</g>
</svg>
