<?xml version="1.0" encoding="UTF-8" standalone="no"?>
<!DOCTYPE svg PUBLIC "-//W3C//DTD SVG 1.1//EN"
 "http://www.w3.org/Graphics/SVG/1.1/DTD/svg11.dtd">
<!-- Generated by graphviz version 2.38.0 (20140413.2041)
 -->
<!-- Title: G Pages: 1 -->
<svg width="1109pt" height="525pt"
 viewBox="0.00 0.00 1109.33 525.00" xmlns="http://www.w3.org/2000/svg" xmlns:xlink="http://www.w3.org/1999/xlink">
<g id="graph0" class="graph" transform="scale(1 1) rotate(0) translate(4 521)">
<title>G</title>
<polygon fill="white" stroke="none" points="-4,4 -4,-521 1105.33,-521 1105.33,4 -4,4"/>
<g id="clust1" class="cluster"><title>cluster_Global</title>
<path fill="none" stroke="gray" d="M156.834,-152C156.834,-152 1081.33,-152 1081.33,-152 1087.33,-152 1093.33,-158 1093.33,-164 1093.33,-164 1093.33,-497 1093.33,-497 1093.33,-503 1087.33,-509 1081.33,-509 1081.33,-509 156.834,-509 156.834,-509 150.834,-509 144.834,-503 144.834,-497 144.834,-497 144.834,-164 144.834,-164 144.834,-158 150.834,-152 156.834,-152"/>
<text text-anchor="middle" x="619.084" y="-496.2" font-family="Times,serif" font-size="11.00" fill="gray">Global</text>
</g>
<g id="clust2" class="cluster"><title>cluster_\smtech</title>
<path fill="none" stroke="gray" d="M164.834,-160C164.834,-160 1073.33,-160 1073.33,-160 1079.33,-160 1085.33,-166 1085.33,-172 1085.33,-172 1085.33,-470 1085.33,-470 1085.33,-476 1079.33,-482 1073.33,-482 1073.33,-482 164.834,-482 164.834,-482 158.834,-482 152.834,-476 152.834,-470 152.834,-470 152.834,-172 152.834,-172 152.834,-166 158.834,-160 164.834,-160"/>
<text text-anchor="middle" x="619.084" y="-469.2" font-family="Times,serif" font-size="11.00" fill="gray">smtech</text>
</g>
<g id="clust3" class="cluster"><title>cluster_\smtech\CanvasPest</title>
<path fill="none" stroke="gray" d="M172.834,-168C172.834,-168 1065.33,-168 1065.33,-168 1071.33,-168 1077.33,-174 1077.33,-180 1077.33,-180 1077.33,-443 1077.33,-443 1077.33,-449 1071.33,-455 1065.33,-455 1065.33,-455 172.834,-455 172.834,-455 166.834,-455 160.834,-449 160.834,-443 160.834,-443 160.834,-180 160.834,-180 160.834,-174 166.834,-168 172.834,-168"/>
<text text-anchor="middle" x="619.084" y="-442.2" font-family="Times,serif" font-size="11.00" fill="gray">CanvasPest</text>
</g>
<!-- \\smtech\\CanvasPest\\CanvasArray -->
<g id="node1" class="node"><title>\\smtech\\CanvasPest\\CanvasArray</title>
<polygon fill="none" stroke="black" points="1026.23,-266 938.009,-266 938.009,-230 1026.23,-230 1026.23,-266"/>
<text text-anchor="middle" x="982.122" y="-244.7" font-family="Courier,monospace" font-size="11.00">CanvasArray</text>
</g>
<!-- \\Iterator -->
<g id="node11" class="node"><title>\\Iterator</title>
<ellipse fill="none" stroke="black" cx="745.598" cy="-126" rx="38.6695" ry="18"/>
<text text-anchor="middle" x="745.598" y="-121.8" font-family="Times,serif" font-size="14.00" fill="gray">\Iterator</text>
</g>
<!-- \\smtech\\CanvasPest\\CanvasArray&#45;&gt;\\Iterator -->
<g id="edge1" class="edge"><title>\\smtech\\CanvasPest\\CanvasArray&#45;&gt;\\Iterator</title>
<path fill="none" stroke="black" stroke-dasharray="1,5" d="M937.785,-237.794C923.67,-233.598 908.219,-228.041 894.909,-221 858.832,-201.916 857.362,-185.881 822.909,-164 810.664,-156.223 796.608,-148.831 783.924,-142.668"/>
<polygon fill="none" stroke="black" points="785.079,-139.342 774.545,-138.21 782.074,-145.664 785.079,-139.342"/>
</g>
<!-- \\ArrayAccess -->
<g id="node12" class="node"><title>\\ArrayAccess</title>
<ellipse fill="none" stroke="black" cx="745.598" cy="-72" rx="58.465" ry="18"/>
<text text-anchor="middle" x="745.598" y="-67.8" font-family="Times,serif" font-size="14.00" fill="gray">\ArrayAccess</text>
</g>
<!-- \\smtech\\CanvasPest\\CanvasArray&#45;&gt;\\ArrayAccess -->
<g id="edge2" class="edge"><title>\\smtech\\CanvasPest\\CanvasArray&#45;&gt;\\ArrayAccess</title>
<path fill="none" stroke="black" stroke-dasharray="1,5" d="M937.786,-240.999C923.04,-236.999 907.197,-230.747 894.909,-221 845.582,-181.874 871.513,-139.021 822.909,-99 816.807,-93.9752 809.702,-89.855 802.329,-86.4844"/>
<polygon fill="none" stroke="black" points="803.483,-83.1744 792.903,-82.6044 800.818,-89.6475 803.483,-83.1744"/>
</g>
<!-- \\Serializable -->
<g id="node13" class="node"><title>\\Serializable</title>
<ellipse fill="none" stroke="black" cx="745.598" cy="-18" rx="54.1058" ry="18"/>
<text text-anchor="middle" x="745.598" y="-13.8" font-family="Times,serif" font-size="14.00" fill="gray">\Serializable</text>
</g>
<!-- \\smtech\\CanvasPest\\CanvasArray&#45;&gt;\\Serializable -->
<g id="edge3" class="edge"><title>\\smtech\\CanvasPest\\CanvasArray&#45;&gt;\\Serializable</title>
<path fill="none" stroke="black" stroke-dasharray="1,5" d="M937.853,-242.193C922.771,-238.307 906.691,-231.823 894.909,-221 832.668,-163.826 884.094,-103.302 822.909,-45 816.906,-39.2794 809.615,-34.7615 801.951,-31.1958"/>
<polygon fill="none" stroke="black" points="803.056,-27.8663 792.477,-27.3018 800.395,-34.3407 803.056,-27.8663"/>
</g>
<!-- \\smtech\\CanvasPest\\CanvasArray_Exception -->
<g id="node2" class="node"><title>\\smtech\\CanvasPest\\CanvasArray_Exception</title>
<polygon fill="none" stroke="black" points="822.721,-428 668.475,-428 668.475,-392 822.721,-392 822.721,-428"/>
<text text-anchor="middle" x="745.598" y="-406.7" font-family="Courier,monospace" font-size="11.00">CanvasArray_Exception</text>
</g>
<!-- \\smtech\\CanvasPest\\CanvasObject_Exception -->
<g id="node4" class="node"><title>\\smtech\\CanvasPest\\CanvasObject_Exception</title>
<polygon fill="none" stroke="black" points="573.295,-428 411.847,-428 411.847,-392 573.295,-392 573.295,-428"/>
<text text-anchor="middle" x="492.571" y="-406.7" font-family="Courier,monospace" font-size="11.00">CanvasObject_Exception</text>
</g>
<!-- \\smtech\\CanvasPest\\CanvasArray_Exception&#45;&gt;\\smtech\\CanvasPest\\CanvasObject_Exception -->
<g id="edge4" class="edge"><title>\\smtech\\CanvasPest\\CanvasArray_Exception&#45;&gt;\\smtech\\CanvasPest\\CanvasObject_Exception</title>
<path fill="none" stroke="black" d="M668.259,-410C641.538,-410 611.284,-410 583.553,-410"/>
<polygon fill="none" stroke="black" points="583.461,-406.5 573.461,-410 583.461,-413.5 583.461,-406.5"/>
</g>
<!-- \\smtech\\CanvasPest\\CanvasObject -->
<g id="node3" class="node"><title>\\smtech\\CanvasPest\\CanvasObject</title>
<polygon fill="none" stroke="black" points="1029.84,-212 934.409,-212 934.409,-176 1029.84,-176 1029.84,-212"/>
<text text-anchor="middle" x="982.122" y="-190.7" font-family="Courier,monospace" font-size="11.00">CanvasObject</text>
</g>
<!-- \\smtech\\CanvasPest\\CanvasObject&#45;&gt;\\ArrayAccess -->
<g id="edge5" class="edge"><title>\\smtech\\CanvasPest\\CanvasObject&#45;&gt;\\ArrayAccess</title>
<path fill="none" stroke="black" stroke-dasharray="1,5" d="M954.875,-175.992C924.204,-155.488 871.453,-121.878 822.909,-99 814.601,-95.0843 805.56,-91.408 796.703,-88.1043"/>
<polygon fill="none" stroke="black" points="797.803,-84.7799 787.208,-84.6718 795.423,-91.363 797.803,-84.7799"/>
</g>
<!-- \\smtech\\CanvasPest\\CanvasObject&#45;&gt;\\Serializable -->
<g id="edge6" class="edge"><title>\\smtech\\CanvasPest\\CanvasObject&#45;&gt;\\Serializable</title>
<path fill="none" stroke="black" stroke-dasharray="1,5" d="M966.381,-175.865C940.405,-144.981 883.466,-81.9398 822.909,-45 815.238,-40.3208 806.639,-36.2947 798.054,-32.8873"/>
<polygon fill="none" stroke="black" points="799.009,-29.5085 788.416,-29.3014 796.568,-36.0691 799.009,-29.5085"/>
</g>
<!-- \\smtech\\CanvasPest\\CanvasPest_Exception -->
<g id="node8" class="node"><title>\\smtech\\CanvasPest\\CanvasPest_Exception</title>
<polygon fill="none" stroke="black" points="316.866,-401 168.823,-401 168.823,-365 316.866,-365 316.866,-401"/>
<text text-anchor="middle" x="242.845" y="-379.7" font-family="Courier,monospace" font-size="11.00">CanvasPest_Exception</text>
</g>
<!-- \\smtech\\CanvasPest\\CanvasObject_Exception&#45;&gt;\\smtech\\CanvasPest\\CanvasPest_Exception -->
<g id="edge7" class="edge"><title>\\smtech\\CanvasPest\\CanvasObject_Exception&#45;&gt;\\smtech\\CanvasPest\\CanvasPest_Exception</title>
<path fill="none" stroke="black" d="M411.825,-401.308C384.86,-398.369 354.686,-395.081 327.432,-392.11"/>
<polygon fill="none" stroke="black" points="327.462,-388.593 317.142,-390.989 326.704,-395.552 327.462,-388.593"/>
</g>
<!-- \\smtech\\CanvasPest\\CanvasPageLink -->
<g id="node5" class="node"><title>\\smtech\\CanvasPest\\CanvasPageLink</title>
<polygon fill="none" stroke="black" points="1036.54,-320 927.706,-320 927.706,-284 1036.54,-284 1036.54,-320"/>
<text text-anchor="middle" x="982.122" y="-298.7" font-family="Courier,monospace" font-size="11.00">CanvasPageLink</text>
</g>
<!-- \\smtech\\CanvasPest\\CanvasPageLink_Exception -->
<g id="node6" class="node"><title>\\smtech\\CanvasPest\\CanvasPageLink_Exception</title>
<polygon fill="none" stroke="black" points="1069.55,-428 894.696,-428 894.696,-392 1069.55,-392 1069.55,-428"/>
<text text-anchor="middle" x="982.122" y="-406.7" font-family="Courier,monospace" font-size="11.00">CanvasPageLink_Exception</text>
</g>
<!-- \\smtech\\CanvasPest\\CanvasPageLink_Exception&#45;&gt;\\smtech\\CanvasPest\\CanvasArray_Exception -->
<g id="edge8" class="edge"><title>\\smtech\\CanvasPest\\CanvasPageLink_Exception&#45;&gt;\\smtech\\CanvasPest\\CanvasArray_Exception</title>
<path fill="none" stroke="black" d="M894.793,-410C874.682,-410 853.263,-410 833.142,-410"/>
<polygon fill="none" stroke="black" points="833.068,-406.5 823.068,-410 833.068,-413.5 833.068,-406.5"/>
</g>
<!-- \\smtech\\CanvasPest\\CanvasPest -->
<g id="node7" class="node"><title>\\smtech\\CanvasPest\\CanvasPest</title>
<polygon fill="none" stroke="black" points="786.609,-293 704.587,-293 704.587,-257 786.609,-257 786.609,-293"/>
<text text-anchor="middle" x="745.598" y="-271.7" font-family="Courier,monospace" font-size="11.00">CanvasPest</text>
</g>
<!-- \\Battis\\Educoder\\Pest -->
<g id="node14" class="node"><title>\\Battis\\Educoder\\Pest</title>
<ellipse fill="none" stroke="black" cx="492.571" cy="-126" rx="86.9809" ry="18"/>
<text text-anchor="middle" x="492.571" y="-121.8" font-family="Times,serif" font-size="14.00" fill="gray">\Battis\Educoder\Pest</text>
</g>
<!-- \\smtech\\CanvasPest\\CanvasPest&#45;&gt;\\Battis\\Educoder\\Pest -->
<g id="edge9" class="edge"><title>\\smtech\\CanvasPest\\CanvasPest&#45;&gt;\\Battis\\Educoder\\Pest</title>
<path fill="none" stroke="black" d="M724.297,-256.775C696.876,-232.896 645.722,-190.905 596.287,-164 582.45,-156.469 566.811,-149.833 551.985,-144.301"/>
<polygon fill="none" stroke="black" points="552.981,-140.939 542.387,-140.826 550.599,-147.521 552.981,-140.939"/>
</g>
<!-- \\Exception -->
<g id="node15" class="node"><title>\\Exception</title>
<ellipse fill="none" stroke="black" cx="48.417" cy="-383" rx="48.3341" ry="18"/>
<text text-anchor="middle" x="48.417" y="-378.8" font-family="Times,serif" font-size="14.00" fill="gray">\Exception</text>
</g>
<!-- \\smtech\\CanvasPest\\CanvasPest_Exception&#45;&gt;\\Exception -->
<g id="edge10" class="edge"><title>\\smtech\\CanvasPest\\CanvasPest_Exception&#45;&gt;\\Exception</title>
<path fill="none" stroke="black" d="M168.822,-383C148.454,-383 126.611,-383 107.249,-383"/>
<polygon fill="none" stroke="black" points="107.073,-379.5 97.0732,-383 107.073,-386.5 107.073,-379.5"/>
</g>
<!-- \\smtech\\CanvasPest\\CanvasPestImmutable -->
<g id="node9" class="node"><title>\\smtech\\CanvasPest\\CanvasPestImmutable</title>
<polygon fill="none" stroke="black" points="1053.04,-374 911.201,-374 911.201,-338 1053.04,-338 1053.04,-374"/>
<text text-anchor="middle" x="982.122" y="-352.7" font-family="Courier,monospace" font-size="11.00">CanvasPestImmutable</text>
</g>
<!-- \\smtech\\CanvasPest\\CanvasPestImmutable&#45;&gt;\\smtech\\CanvasPest\\CanvasPest -->
<g id="edge11" class="edge"><title>\\smtech\\CanvasPest\\CanvasPestImmutable&#45;&gt;\\smtech\\CanvasPest\\CanvasPest</title>
<path fill="none" stroke="black" d="M922.108,-337.912C912.979,-335 903.675,-331.967 894.909,-329 861.795,-317.793 824.852,-304.345 796.121,-293.673"/>
<polygon fill="none" stroke="black" points="797.302,-290.378 786.709,-290.167 794.858,-296.937 797.302,-290.378"/>
</g>
<!-- \\smtech\\CanvasPest\\CanvasPestImmutable_Exception -->
<g id="node10" class="node"><title>\\smtech\\CanvasPest\\CanvasPestImmutable_Exception</title>
<polygon fill="none" stroke="black" points="596.503,-374 388.639,-374 388.639,-338 596.503,-338 596.503,-374"/>
<text text-anchor="middle" x="492.571" y="-352.7" font-family="Courier,monospace" font-size="11.00">CanvasPestImmutable_Exception</text>
</g>
<!-- \\smtech\\CanvasPest\\CanvasPestImmutable_Exception&#45;&gt;\\smtech\\CanvasPest\\CanvasPest_Exception -->
<g id="edge12" class="edge"><title>\\smtech\\CanvasPest\\CanvasPestImmutable_Exception&#45;&gt;\\smtech\\CanvasPest\\CanvasPest_Exception</title>
<path fill="none" stroke="black" d="M388.665,-367.216C368.175,-369.449 346.898,-371.768 327.163,-373.919"/>
<polygon fill="none" stroke="black" points="326.559,-370.464 316.997,-375.027 327.317,-377.423 326.559,-370.464"/>
</g>
</g>
</svg>
