<?xml version="1.0" encoding="UTF-8" standalone="no"?>
<!DOCTYPE svg PUBLIC "-//W3C//DTD SVG 1.1//EN"
 "http://www.w3.org/Graphics/SVG/1.1/DTD/svg11.dtd">
<!-- Generated by graphviz version 2.38.0 (20140413.2041)
 -->
<!-- Title: G Pages: 1 -->
<svg width="1093pt" height="455pt"
 viewBox="0.00 0.00 1093.33 455.00" xmlns="http://www.w3.org/2000/svg" xmlns:xlink="http://www.w3.org/1999/xlink">
<g id="graph0" class="graph" transform="scale(1 1) rotate(0) translate(4 451)">
<title>G</title>
<polygon fill="white" stroke="none" points="-4,4 -4,-451 1089.33,-451 1089.33,4 -4,4"/>
<g id="clust1" class="cluster"><title>cluster_Global</title>
<path fill="none" stroke="gray" d="M172.834,-152C172.834,-152 1065.33,-152 1065.33,-152 1071.33,-152 1077.33,-158 1077.33,-164 1077.33,-164 1077.33,-427 1077.33,-427 1077.33,-433 1071.33,-439 1065.33,-439 1065.33,-439 172.834,-439 172.834,-439 166.834,-439 160.834,-433 160.834,-427 160.834,-427 160.834,-164 160.834,-164 160.834,-158 166.834,-152 172.834,-152"/>
<text text-anchor="middle" x="619.084" y="-426.2" font-family="Times,serif" font-size="11.00" fill="gray">Global</text>
</g>
<!-- \\CanvasPest -->
<g id="node1" class="node"><title>\\CanvasPest</title>
<polygon fill="none" stroke="black" points="786.609,-265 704.587,-265 704.587,-229 786.609,-229 786.609,-265"/>
<text text-anchor="middle" x="745.598" y="-243.7" font-family="Courier,monospace" font-size="11.00">CanvasPest</text>
</g>
<!-- \\Pest -->
<g id="node11" class="node"><title>\\Pest</title>
<ellipse fill="none" stroke="black" cx="492.571" cy="-126" rx="27.113" ry="18"/>
<text text-anchor="middle" x="492.571" y="-121.8" font-family="Times,serif" font-size="14.00" fill="gray">\Pest</text>
</g>
<!-- \\CanvasPest&#45;&gt;\\Pest -->
<g id="edge1" class="edge"><title>\\CanvasPest&#45;&gt;\\Pest</title>
<path fill="none" stroke="black" d="M723.015,-228.712C695.425,-206.291 645.335,-168.725 596.287,-148 575.115,-139.054 549.894,-133.584 529.743,-130.336"/>
<polygon fill="none" stroke="black" points="530.123,-126.854 519.715,-128.834 529.086,-133.777 530.123,-126.854"/>
</g>
<!-- \\CanvasPestImmutable -->
<g id="node2" class="node"><title>\\CanvasPestImmutable</title>
<polygon fill="none" stroke="black" points="1053.04,-358 911.201,-358 911.201,-322 1053.04,-322 1053.04,-358"/>
<text text-anchor="middle" x="982.122" y="-336.7" font-family="Courier,monospace" font-size="11.00">CanvasPestImmutable</text>
</g>
<!-- \\CanvasPestImmutable&#45;&gt;\\CanvasPest -->
<g id="edge2" class="edge"><title>\\CanvasPestImmutable&#45;&gt;\\CanvasPest</title>
<path fill="none" stroke="black" d="M920.526,-321.993C911.873,-319.141 903.126,-316.103 894.909,-313 860.175,-299.882 821.913,-282.787 792.953,-269.282"/>
<polygon fill="none" stroke="black" points="794.433,-266.11 783.893,-265.033 791.461,-272.448 794.433,-266.11"/>
</g>
<!-- \\CanvasPest_Exception -->
<g id="node3" class="node"><title>\\CanvasPest_Exception</title>
<polygon fill="none" stroke="black" points="316.866,-385 168.823,-385 168.823,-349 316.866,-349 316.866,-385"/>
<text text-anchor="middle" x="242.845" y="-363.7" font-family="Courier,monospace" font-size="11.00">CanvasPest_Exception</text>
</g>
<!-- \\Exception -->
<g id="node12" class="node"><title>\\Exception</title>
<ellipse fill="none" stroke="black" cx="48.417" cy="-367" rx="48.3341" ry="18"/>
<text text-anchor="middle" x="48.417" y="-362.8" font-family="Times,serif" font-size="14.00" fill="gray">\Exception</text>
</g>
<!-- \\CanvasPest_Exception&#45;&gt;\\Exception -->
<g id="edge3" class="edge"><title>\\CanvasPest_Exception&#45;&gt;\\Exception</title>
<path fill="none" stroke="black" d="M168.822,-367C148.454,-367 126.611,-367 107.249,-367"/>
<polygon fill="none" stroke="black" points="107.073,-363.5 97.0732,-367 107.073,-370.5 107.073,-363.5"/>
</g>
<!-- \\CanvasPestImmutable_Exception -->
<g id="node4" class="node"><title>\\CanvasPestImmutable_Exception</title>
<polygon fill="none" stroke="black" points="596.503,-412 388.639,-412 388.639,-376 596.503,-376 596.503,-412"/>
<text text-anchor="middle" x="492.571" y="-390.7" font-family="Courier,monospace" font-size="11.00">CanvasPestImmutable_Exception</text>
</g>
<!-- \\CanvasPestImmutable_Exception&#45;&gt;\\CanvasPest_Exception -->
<g id="edge4" class="edge"><title>\\CanvasPestImmutable_Exception&#45;&gt;\\CanvasPest_Exception</title>
<path fill="none" stroke="black" d="M388.665,-382.784C368.175,-380.551 346.898,-378.232 327.163,-376.081"/>
<polygon fill="none" stroke="black" points="327.317,-372.577 316.997,-374.973 326.559,-379.536 327.317,-372.577"/>
</g>
<!-- \\CanvasArray -->
<g id="node5" class="node"><title>\\CanvasArray</title>
<polygon fill="none" stroke="black" points="1026.23,-250 938.009,-250 938.009,-214 1026.23,-214 1026.23,-250"/>
<text text-anchor="middle" x="982.122" y="-228.7" font-family="Courier,monospace" font-size="11.00">CanvasArray</text>
</g>
<!-- \\Iterator -->
<g id="node13" class="node"><title>\\Iterator</title>
<ellipse fill="none" stroke="black" cx="745.598" cy="-126" rx="38.6695" ry="18"/>
<text text-anchor="middle" x="745.598" y="-121.8" font-family="Times,serif" font-size="14.00" fill="gray">\Iterator</text>
</g>
<!-- \\CanvasArray&#45;&gt;\\Iterator -->
<g id="edge5" class="edge"><title>\\CanvasArray&#45;&gt;\\Iterator</title>
<path fill="none" stroke="black" stroke-dasharray="1,5" d="M937.785,-221.794C923.67,-217.598 908.219,-212.041 894.909,-205 858.832,-185.916 859.202,-166.672 822.909,-148 813.053,-142.929 801.862,-138.874 791.146,-135.696"/>
<polygon fill="none" stroke="black" points="792.062,-132.318 781.49,-133.02 790.192,-139.063 792.062,-132.318"/>
</g>
<!-- \\ArrayAccess -->
<g id="node14" class="node"><title>\\ArrayAccess</title>
<ellipse fill="none" stroke="black" cx="745.598" cy="-72" rx="58.465" ry="18"/>
<text text-anchor="middle" x="745.598" y="-67.8" font-family="Times,serif" font-size="14.00" fill="gray">\ArrayAccess</text>
</g>
<!-- \\CanvasArray&#45;&gt;\\ArrayAccess -->
<g id="edge6" class="edge"><title>\\CanvasArray&#45;&gt;\\ArrayAccess</title>
<path fill="none" stroke="black" stroke-dasharray="1,5" d="M937.682,-224.437C923.092,-220.394 907.375,-214.258 894.909,-205 849.189,-171.043 868.001,-133.787 822.909,-99 816.502,-94.0568 809.115,-89.9712 801.515,-86.6077"/>
<polygon fill="none" stroke="black" points="802.773,-83.3412 792.189,-82.8538 800.159,-89.8348 802.773,-83.3412"/>
</g>
<!-- \\Serializable -->
<g id="node15" class="node"><title>\\Serializable</title>
<ellipse fill="none" stroke="black" cx="745.598" cy="-18" rx="54.1058" ry="18"/>
<text text-anchor="middle" x="745.598" y="-13.8" font-family="Times,serif" font-size="14.00" fill="gray">\Serializable</text>
</g>
<!-- \\CanvasArray&#45;&gt;\\Serializable -->
<g id="edge7" class="edge"><title>\\CanvasArray&#45;&gt;\\Serializable</title>
<path fill="none" stroke="black" stroke-dasharray="1,5" d="M937.611,-225.854C922.678,-221.934 906.759,-215.513 894.909,-205 836.579,-153.247 880.283,-97.8108 822.909,-45 816.808,-39.384 809.465,-34.9224 801.777,-31.3815"/>
<polygon fill="none" stroke="black" points="802.869,-28.0468 792.288,-27.5032 800.22,-34.5265 802.869,-28.0468"/>
</g>
<!-- \\CanvasPageLink -->
<g id="node6" class="node"><title>\\CanvasPageLink</title>
<polygon fill="none" stroke="black" points="1036.54,-304 927.706,-304 927.706,-268 1036.54,-268 1036.54,-304"/>
<text text-anchor="middle" x="982.122" y="-282.7" font-family="Courier,monospace" font-size="11.00">CanvasPageLink</text>
</g>
<!-- \\CanvasArray_Exception -->
<g id="node7" class="node"><title>\\CanvasArray_Exception</title>
<polygon fill="none" stroke="black" points="822.721,-385 668.475,-385 668.475,-349 822.721,-349 822.721,-385"/>
<text text-anchor="middle" x="745.598" y="-363.7" font-family="Courier,monospace" font-size="11.00">CanvasArray_Exception</text>
</g>
<!-- \\CanvasObject_Exception -->
<g id="node10" class="node"><title>\\CanvasObject_Exception</title>
<polygon fill="none" stroke="black" points="573.295,-358 411.847,-358 411.847,-322 573.295,-322 573.295,-358"/>
<text text-anchor="middle" x="492.571" y="-336.7" font-family="Courier,monospace" font-size="11.00">CanvasObject_Exception</text>
</g>
<!-- \\CanvasArray_Exception&#45;&gt;\\CanvasObject_Exception -->
<g id="edge8" class="edge"><title>\\CanvasArray_Exception&#45;&gt;\\CanvasObject_Exception</title>
<path fill="none" stroke="black" d="M668.259,-358.789C641.538,-355.915 611.284,-352.661 583.553,-349.678"/>
<polygon fill="none" stroke="black" points="583.778,-346.182 573.461,-348.593 583.029,-353.142 583.778,-346.182"/>
</g>
<!-- \\CanvasPageLink_Exception -->
<g id="node8" class="node"><title>\\CanvasPageLink_Exception</title>
<polygon fill="none" stroke="black" points="1069.55,-412 894.696,-412 894.696,-376 1069.55,-376 1069.55,-412"/>
<text text-anchor="middle" x="982.122" y="-390.7" font-family="Courier,monospace" font-size="11.00">CanvasPageLink_Exception</text>
</g>
<!-- \\CanvasPageLink_Exception&#45;&gt;\\CanvasArray_Exception -->
<g id="edge9" class="edge"><title>\\CanvasPageLink_Exception&#45;&gt;\\CanvasArray_Exception</title>
<path fill="none" stroke="black" d="M894.793,-384.061C874.682,-381.746 853.263,-379.28 833.142,-376.964"/>
<polygon fill="none" stroke="black" points="833.403,-373.471 823.068,-375.804 832.602,-380.425 833.403,-373.471"/>
</g>
<!-- \\CanvasObject -->
<g id="node9" class="node"><title>\\CanvasObject</title>
<polygon fill="none" stroke="black" points="1029.84,-196 934.409,-196 934.409,-160 1029.84,-160 1029.84,-196"/>
<text text-anchor="middle" x="982.122" y="-174.7" font-family="Courier,monospace" font-size="11.00">CanvasObject</text>
</g>
<!-- \\CanvasObject&#45;&gt;\\ArrayAccess -->
<g id="edge10" class="edge"><title>\\CanvasObject&#45;&gt;\\ArrayAccess</title>
<path fill="none" stroke="black" stroke-dasharray="1,5" d="M948.042,-159.986C916.415,-143.123 867.134,-117.781 822.909,-99 814.265,-95.329 804.933,-91.7347 795.863,-88.4272"/>
<polygon fill="none" stroke="black" points="796.762,-85.0317 786.167,-84.9607 794.405,-91.6231 796.762,-85.0317"/>
</g>
<!-- \\CanvasObject&#45;&gt;\\Serializable -->
<g id="edge11" class="edge"><title>\\CanvasObject&#45;&gt;\\Serializable</title>
<path fill="none" stroke="black" stroke-dasharray="1,5" d="M963.769,-159.677C936.265,-131.557 879.911,-77.603 822.909,-45 814.936,-40.4397 806.06,-36.448 797.262,-33.0318"/>
<polygon fill="none" stroke="black" points="798.385,-29.7159 787.792,-29.5512 795.97,-36.2862 798.385,-29.7159"/>
</g>
<!-- \\CanvasObject_Exception&#45;&gt;\\CanvasPest_Exception -->
<g id="edge12" class="edge"><title>\\CanvasObject_Exception&#45;&gt;\\CanvasPest_Exception</title>
<path fill="none" stroke="black" d="M411.825,-348.692C384.86,-351.631 354.686,-354.919 327.432,-357.89"/>
<polygon fill="none" stroke="black" points="326.704,-354.448 317.142,-359.011 327.462,-361.407 326.704,-354.448"/>
</g>
</g>
</svg>
